<svg width="16" height="16" fill="none" viewBox="0 0 16 16" xmlns="http://www.w3.org/2000/svg">
  <path d="M12.272 5.37602H3.72801C3.60001 5.37602 3.48801 5.42402 3.39201 5.52002C3.29601 5.61601 3.24801 5.72801 3.24801 5.85602L3.85601 13.936C3.86667 14.0747 3.93067 14.1893 4.04801 14.28C4.16534 14.3707 4.32534 14.416 4.52801 14.416H11.472C11.664 14.416 11.8187 14.3707 11.936 14.28C12.0533 14.1893 12.1227 14.0747 12.144 13.936L12.752 5.85602C12.752 5.72801 12.704 5.61601 12.608 5.52002C12.512 5.42402 12.4 5.37602 12.272 5.37602ZM5.50401 13.456C5.39734 13.456 5.30134 13.408 5.21601 13.312C5.13067 13.216 5.08801 13.104 5.08801 12.976L4.67201 6.80001C4.67201 6.67202 4.72001 6.56268 4.81601 6.47201C4.91201 6.38135 5.02401 6.33602 5.15201 6.33602C5.28001 6.33602 5.39201 6.38135 5.48801 6.47201C5.58401 6.56268 5.63201 6.67202 5.63201 6.80001L5.92001 12.976C5.92001 13.104 5.88001 13.216 5.80001 13.312C5.72001 13.408 5.62134 13.456 5.50401 13.456ZM8.41601 12.96C8.41601 13.0987 8.37601 13.216 8.296 13.312C8.216 13.408 8.11734 13.456 8.00001 13.456C7.88267 13.456 7.78401 13.408 7.70401 13.312C7.624 13.216 7.584 13.0987 7.584 12.96L7.52001 6.80001C7.52001 6.67202 7.56801 6.56268 7.664 6.47201C7.76 6.38135 7.872 6.33602 8.00001 6.33602C8.12801 6.33602 8.24001 6.38135 8.33601 6.47201C8.432 6.56268 8.48 6.67202 8.48 6.80001L8.41601 12.96ZM10.912 12.976C10.912 13.104 10.8693 13.216 10.784 13.312C10.6987 13.408 10.6027 13.456 10.496 13.456C10.3787 13.456 10.28 13.408 10.2 13.312C10.12 13.216 10.08 13.104 10.08 12.976L10.368 6.80001C10.368 6.67202 10.416 6.56268 10.512 6.47201C10.608 6.38135 10.72 6.33602 10.848 6.33602C10.976 6.33602 11.088 6.38135 11.184 6.47201C11.28 6.56268 11.328 6.67202 11.328 6.80001L10.912 12.976ZM12.528 3.29602L9.664 2.81602C9.53601 2.79468 9.45601 2.71468 9.42401 2.57601L9.296 2.04801C9.25334 1.83468 9.17867 1.69601 9.072 1.63201C9.00801 1.60001 8.89067 1.58401 8.72001 1.58401H7.28C7.10934 1.58401 6.98667 1.60001 6.912 1.63201C6.80534 1.69601 6.73601 1.83468 6.70401 2.04801L6.57601 2.57601C6.55467 2.71468 6.47467 2.79468 6.33601 2.81602L3.47201 3.29602C3.26934 3.32801 3.10134 3.40535 2.96801 3.52802C2.83467 3.65068 2.76801 3.80268 2.76801 3.98401V4.43201C2.76801 4.52802 2.80267 4.60802 2.87201 4.67201C2.94134 4.73602 3.02401 4.76802 3.12001 4.76802H12.88C12.976 4.76802 13.0587 4.73602 13.128 4.67201C13.1973 4.60802 13.232 4.52802 13.232 4.43201V3.98401C13.232 3.80268 13.1653 3.65068 13.032 3.52802C12.8987 3.40535 12.7307 3.32801 12.528 3.29602Z" fill="#3D3D3D" />
</svg>